<svg width="23.332" height="23.333" xmlns="http://www.w3.org/2000/svg">

 <g>
  <title>background</title>
  <rect fill="none" id="canvas_background" height="402" width="582" y="-1" x="-1"/>
 </g>
 <g>
  <title>Layer 1</title>
  <path fill="#003f7f" id="svg_1" d="m16.043,11.667l6.566,-6.567c0.963,-0.963 0.963,-2.539 0,-3.502l-0.875,-0.875c-0.963,-0.964 -2.539,-0.964 -3.502,0l-6.566,6.567l-6.567,-6.567c-0.962,-0.963 -2.538,-0.963 -3.501,0l-0.876,0.875c-0.962,0.963 -0.962,2.539 0,3.502l6.566,6.50073l-6.566,6.63227c-0.962,0.963 -0.962,2.539 0,3.501l0.876,0.875c0.963,0.963 2.539,0.963 3.501,0l6.567,-6.565l6.566,6.565c0.963,0.963 2.539,0.963 3.502,0l0.875,-0.90764c0.83246,-0.79982 0.963,-2.50636 0,-3.46836l-6.566,-6.566z"/>
  <path d="m2.642271,2.854901c0.032635,0 0.130542,0.130542 0.29372,0.261084c0.163178,0.130542 0.354864,0.36371 0.652711,0.620076c0.386371,0.332561 0.715408,0.591162 1.044338,0.815888c0.291477,0.199138 0.554804,0.358991 0.88116,0.522169c0.195813,0.097907 0.457454,0.182354 0.620075,0.195813c0.197838,0.016374 0.391626,0.032636 0.620075,0.032636c0.358991,0 0.731812,-0.075697 1.109609,-0.326355c0.407917,-0.270642 0.821259,-0.578961 1.142244,-0.913795c0.338767,-0.353384 0.440212,-0.682251 0.489533,-0.979067c0.048443,-0.29153 0.081548,-0.553066 0.097907,-0.783253c0.011567,-0.162767 0.06527,-0.29372 0.06527,-0.424262l0,-0.097907l0,-0.065271l0,-0.032635" id="svg_2" fill-opacity="null" stroke-opacity="null" stroke-width="null" stroke="null" fill="none"/>
  <polyline stroke-linecap="round" id="svg_3" points="5.2204790565868535,3.8339676182099267 5.2204790565868535,3.8339676182099267 " fill-opacity="null" stroke-opacity="null" stroke-width="null" stroke="null" fill="none"/>
  <path d="m6.297452,4.25823c0,0.065271 0.038429,0.127751 0.130542,0.326355c0.104575,0.225474 0.206776,0.484334 0.326355,0.750618c0.143992,0.320649 0.325296,0.620741 0.489533,0.88116c0.226987,0.359917 0.358991,0.554804 0.522169,0.783253l0.163177,0.163177l0.097907,0.097907l0.032635,0.032636" id="svg_4" fill-opacity="null" stroke-opacity="null" stroke-width="null" stroke="null" fill="none"/>
  <polyline stroke-linecap="round" id="svg_5" points="5.057301301912825,4.290865331297203 5.057301301912825,4.290865331297203 " fill-opacity="null" stroke-opacity="null" stroke-width="null" stroke="null" fill="none"/>
  <polyline stroke-linecap="round" id="svg_6" points="1.5979329028234481,3.866603169144732 1.5979329028234481,3.866603169144732 " fill-opacity="null" stroke-opacity="null" stroke-width="null" stroke="null" fill="none"/>
  <polyline stroke-linecap="round" id="svg_7" points="-0.9150045191565752,7.391242670103722 -0.9150045191565752,7.391242670103722 " fill-opacity="null" stroke-opacity="null" stroke-width="null" stroke="null" fill="none"/>
  <rect id="svg_9" height="0.29372" width="0.29372" y="15.941757" x="6.982799" stroke-opacity="null" stroke-width="null" stroke="null" fill="#3a41c4"/>
 </g>
</svg>